# xmcd CD database file
#
# Track frame offsets:
#	182
#	13597
#	32895
#	50405
#	64057
#	86310
#	98255
#	115495
#	132485
#	143400
#	162147
#	182565
#
# Disc length: 2494 seconds
#
# Revision: 3
# Processed by: cddbd v1.5.1PL0 Copyright (c) Steve Scherf et al.
# Submitted via: CDex 1.50beta10
#
DISCID=9109bc0c
DTITLE=The Borders - Independent's Day
DYEAR=1900
DGENRE=Country
TTITLE0=Don't Let It Go
TTITLE1=Independent's Day
TTITLE2=She Made A Woman
TTITLE3=I Fell For You
TTITLE4=Fighting For Peace
TTITLE5=I Belong
TTITLE6=Fate
TTITLE7=Isolation
TTITLE8=Five Little Minutes
TTITLE9=Liberty
TTITLE10=All My Sisters
TTITLE11=Independent's Day reprise
EXTD=
EXTT0=
EXTT1=
EXTT2=
EXTT3=
EXTT4=
EXTT5=
EXTT6=
EXTT7=
EXTT8=
EXTT9=
EXTT10=
EXTT11=
PLAYORDER=
